<svg width="22" height="16" viewBox="0 0 22 16" fill="none" xmlns="http://www.w3.org/2000/svg">
<path d="M4.63603 0.22168L18.7782 14.3638L17.3639 15.778L15.4338 13.8499C14.0286 14.6134 12.55 14.9999 11 14.9999C7.41281 14.9999 4.20874 12.9302 1.40883 8.907L1.16982 8.55737L0.79541 7.99985L1.16982 7.44234C2.3327 5.71076 3.56656 4.32124 4.86986 3.28227L3.22181 1.63589L4.63603 0.22168ZM3.21623 7.99985C5.62382 11.3692 8.21187 12.9999 11 12.9999C12.0065 12.9999 12.9869 12.7874 13.9421 12.3573L12.2927 10.7078C11.9012 10.895 11.4628 10.9999 11 10.9999C9.34313 10.9999 7.99999 9.65671 7.99999 7.99985C7.99999 7.53661 8.10499 7.09788 8.29248 6.70618L6.29359 4.70686C5.23609 5.51293 4.21076 6.60806 3.21623 7.99985ZM11 0.999854C14.5872 0.999854 17.7912 3.06947 20.5912 7.09271L20.8302 7.44234L21.2046 7.99985L20.8302 8.55737C20.2031 9.49115 19.5553 10.3255 18.8872 11.059L17.4716 9.64464C17.9149 9.15182 18.3522 8.60376 18.7837 7.99985C16.3762 4.63055 13.7881 2.99985 11 2.99985L10.8304 3.00285L9.04169 1.21314C9.68116 1.0712 10.334 0.999854 11 0.999854Z" fill="black"/>
</svg>
