<svg width="22" height="14" viewBox="0 0 22 14" fill="none" xmlns="http://www.w3.org/2000/svg">
    <path
        d="M11 0C14.6897 0 17.974 2.18957 20.8302 6.44248L21.2046 7L20.8302 7.55752C17.974 11.8104 14.6897 14 11 14C7.31032 14 4.02596 11.8104 1.16982 7.55752L0.79541 7L1.16982 6.44248C4.02596 2.18957 7.31032 0 11 0ZM11 2C8.21187 2 5.62382 3.6307 3.21623 7C5.62382 10.3693 8.21187 12 11 12C13.7881 12 16.3762 10.3693 18.7837 7C16.3762 3.6307 13.7881 2 11 2ZM11 4C12.6568 4 14 5.34315 14 7C14 8.65685 12.6568 10 11 10C9.34313 10 7.99999 8.65685 7.99999 7C7.99999 5.34315 9.34313 4 11 4Z"
        fill="black" />
</svg>
