<svg width="24" height="24" viewBox="0 0 24 24" fill="none" xmlns="http://www.w3.org/2000/svg">
<path d="M13.168 16.0452C13.168 16.6902 12.6451 17.2132 12 17.2132C11.3549 17.2132 10.832 16.6902 10.832 16.0452C10.832 15.4001 11.3549 14.8771 12 14.8771C12.6451 14.8771 13.168 15.4001 13.168 16.0452Z" fill="#FF583A"/>
<path d="M11.6783 9.4264C11.2227 9.4264 10.8644 9.81576 10.9023 10.2697L11.1916 13.7415C11.2084 13.9432 11.3771 14.0985 11.5796 14.0985H12.4204C12.6229 14.0985 12.7916 13.9432 12.8084 13.7415L13.0977 10.2697C13.1356 9.81576 12.7773 9.4264 12.3218 9.4264H11.6783Z" fill="#FF583A"/>
<path fill-rule="evenodd" clip-rule="evenodd" d="M9.97176 5.17703C10.8685 3.60765 13.1315 3.60766 14.0282 5.17703L20.6888 16.8329C21.5787 18.3903 20.4542 20.328 18.6605 20.328H5.33948C3.54582 20.328 2.42134 18.3903 3.31124 16.8329L9.97176 5.17703ZM12.6761 5.9497C12.3772 5.42657 11.6228 5.42657 11.3239 5.9497L4.6634 17.6056C4.36677 18.1247 4.7416 18.7706 5.33948 18.7706H18.6605C19.2584 18.7706 19.6332 18.1247 19.3366 17.6056L12.6761 5.9497Z" fill="#FF583A"/>
</svg>
